<svg width="367" height="146" viewBox="0 0 367 146" fill="none" xmlns="http://www.w3.org/2000/svg">
<path d="M2 69.65C1.65933 69.65 1.343 69.504 1.051 69.212C0.710333 68.92 0.54 68.5063 0.54 67.971C0.54 67.5817 0.661667 67.095 0.905 66.511C1.14833 65.927 1.58633 65.2943 2.219 64.613C3.33833 62.131 4.38467 60.1113 5.358 58.554C6.38 56.9967 7.52367 55.3177 8.789 53.517C8.15633 53.4197 7.694 53.2007 7.402 52.86C7.11 52.4707 6.964 52.0327 6.964 51.546C6.964 50.7673 7.183 50.0373 7.621 49.356C8.10767 48.626 8.54567 48.261 8.935 48.261C9.519 48.261 10.1273 48.188 10.76 48.042C11.4413 47.896 12.1227 47.823 12.804 47.823C14.556 45.2923 15.9673 43.1997 17.038 41.545C18.1573 39.8903 19.0577 38.552 19.739 37.53C20.4203 36.508 21.0043 35.6563 21.491 34.975C22.0263 34.2937 22.5617 33.661 23.097 33.077C23.6323 32.4443 24.2893 31.7143 25.068 30.887C25.8467 30.0597 26.8687 29.0133 28.134 27.748C27.5013 26.434 27.185 25.1443 27.185 23.879C27.185 22.127 27.696 20.6913 28.718 19.572C29.74 18.4527 30.8107 17.893 31.93 17.893C32.514 17.893 33.0493 18.0633 33.536 18.404C34.0713 18.696 34.5093 19.2313 34.85 20.01C36.2127 23.1247 37.1617 27.091 37.697 31.909C38.281 36.727 38.6703 41.837 38.865 47.239C42.515 47.531 45.0457 48.188 46.457 49.21C45.8243 49.4047 44.851 49.6237 43.537 49.867C42.223 50.0617 40.6657 50.2807 38.865 50.524C38.865 52.4707 38.8893 54.4417 38.938 56.437C38.9867 58.4323 39.011 60.4033 39.011 62.35C39.011 65.0753 38.792 66.9733 38.354 68.044C37.9647 69.1147 37.5753 69.65 37.186 69.65C36.6507 69.65 36.383 69.1633 36.383 68.19C36.383 64.9293 36.237 61.8877 35.945 59.065C35.653 56.1937 35.2393 53.517 34.704 51.035C32.3193 51.2783 29.7887 51.546 27.112 51.838C24.484 52.0813 21.856 52.3247 19.228 52.568C16.6 52.8113 14.1667 53.0547 11.928 53.298C10.3707 55.7313 8.81333 58.2863 7.256 60.963C5.74733 63.6397 4.28733 66.365 2.876 69.139C2.73 69.4797 2.438 69.65 2 69.65ZM15.87 47.531C18.7413 47.2877 21.7587 47.1417 24.922 47.093C28.0853 46.9957 31.0783 46.947 33.901 46.947C33.0737 43.4917 32.1733 40.45 31.2 37.822C30.2753 35.1453 29.5453 32.858 29.01 30.96C27.7447 32.2253 25.9197 34.2937 23.535 37.165C21.199 40.0363 18.644 43.4917 15.87 47.531ZM64.0608 66.876C62.6982 66.876 61.2868 66.7787 59.8268 66.584C58.4155 66.438 57.2232 66.146 56.2498 65.708C55.3252 65.2213 54.8628 64.5643 54.8628 63.737C54.8628 63.299 55.0332 62.9583 55.3738 62.715C55.7632 62.423 56.2012 62.277 56.6878 62.277C56.9312 62.277 57.3448 62.3257 57.9288 62.423C58.5128 62.5203 58.9265 62.5933 59.1698 62.642C60.6298 62.788 62.4548 62.861 64.6448 62.861C66.5428 62.861 68.4165 62.788 70.2658 62.642C72.1152 62.496 73.6482 62.277 74.8648 61.985C76.1302 61.693 76.7628 61.328 76.7628 60.89C76.7628 60.5007 76.3735 60.1113 75.5948 59.722C74.8162 59.284 74.0862 58.919 73.4048 58.627C72.0908 57.9943 70.6308 57.3617 69.0248 56.729C67.4188 56.0963 65.9345 55.5367 64.5718 55.05C63.2578 54.5147 62.3818 54.1497 61.9438 53.955C60.4352 53.2737 59.1212 52.5437 58.0018 51.765C56.8825 50.9863 56.3228 50.1347 56.3228 49.21C56.3228 48.48 56.8338 47.531 57.8558 46.363C59.0725 45.049 60.5812 43.9783 62.3818 43.151C64.2312 42.275 66.2022 41.618 68.2948 41.18C70.4362 40.742 72.5288 40.523 74.5728 40.523C76.1302 40.523 77.5902 40.6447 78.9528 40.888C80.3642 41.1313 81.5808 41.4963 82.6028 41.983C83.2842 42.3237 83.8925 42.7617 84.4278 43.297C85.0118 43.7837 85.3038 44.2217 85.3038 44.611C85.3038 44.903 85.1578 45.122 84.8658 45.268C84.6225 45.414 84.3062 45.487 83.9168 45.487C83.7222 45.487 83.5275 45.487 83.3328 45.487C83.1868 45.4383 83.0408 45.3897 82.8948 45.341C81.8728 44.9517 80.8265 44.6353 79.7558 44.392C78.6852 44.1487 77.5902 44.027 76.4708 44.027C74.9622 44.027 73.3318 44.3677 71.5798 45.049C69.8765 45.6817 68.4165 46.509 67.1998 47.531C66.0318 48.553 65.4478 49.5993 65.4478 50.67C65.4478 51.2053 65.6668 51.7893 66.1048 52.422C66.5428 53.006 67.2972 53.6387 68.3678 54.32C70.1685 55.3907 71.9935 56.291 73.8428 57.021C75.6922 57.7023 77.2252 58.3593 78.4418 58.992C80.2912 60.014 81.2158 61.1577 81.2158 62.423C81.2158 63.3477 80.6318 64.102 79.4638 64.686C78.2958 65.27 76.8115 65.708 75.0108 66C73.2102 66.3407 71.3122 66.5597 69.3168 66.657C67.3702 66.803 65.6182 66.876 64.0608 66.876ZM108.059 39.209C107.572 39.209 107.207 39.1603 106.964 39.063C106.72 38.917 106.477 38.7467 106.234 38.552C105.942 38.26 105.601 37.9193 105.212 37.53C104.822 37.092 104.628 36.727 104.628 36.435C104.628 36.1917 104.774 36.0457 105.066 35.997C107.596 35.2183 109.494 34.829 110.76 34.829C111.538 34.829 112.122 34.9507 112.512 35.194C112.95 35.3887 113.315 35.6807 113.607 36.07C113.704 36.1187 113.874 36.362 114.118 36.8C114.361 37.1893 114.483 37.4327 114.483 37.53C114.483 37.8707 114.069 38.0897 113.242 38.187C112.414 38.2843 111.733 38.3817 111.198 38.479C110.662 38.6737 110.127 38.844 109.592 38.99C109.105 39.136 108.594 39.209 108.059 39.209ZM106.745 65.27C106.453 65.27 106.112 65.0023 105.723 64.467C105.333 63.9317 104.944 63.3477 104.555 62.715C103.581 61.0117 102.778 59.2597 102.146 57.459C101.513 55.6583 101.197 53.9307 101.197 52.276C101.197 50.7673 101.489 49.356 102.073 48.042C102.657 46.728 103.581 45.6087 104.847 44.684C105.577 44.1 106.623 43.808 107.986 43.808C108.813 43.808 109.543 43.9783 110.176 44.319C110.808 44.611 111.125 45.1707 111.125 45.998C111.125 46.7767 110.784 47.7987 110.103 49.064C109.47 50.3293 108.886 51.692 108.351 53.152C108.059 54.0767 107.815 55.1473 107.621 56.364C107.475 57.5807 107.426 58.9677 107.475 60.525C107.475 60.8657 107.475 61.182 107.475 61.474C107.523 61.7173 107.548 61.9607 107.548 62.204C107.548 63.3233 107.475 64.1263 107.329 64.613C107.183 65.051 106.988 65.27 106.745 65.27ZM132.295 66.438C132.1 66.438 131.759 66.292 131.273 66C130.786 65.7567 130.324 65.416 129.886 64.978C129.496 64.4913 129.302 64.0047 129.302 63.518C129.302 62.1553 129.521 60.4763 129.959 58.481C130.445 56.437 131.078 54.2957 131.857 52.057C132.635 49.7697 133.463 47.6527 134.339 45.706C134.728 44.8787 135.263 44.319 135.945 44.027C136.626 43.6863 137.356 43.516 138.135 43.516C139.254 43.516 140.3 43.808 141.274 44.392C142.247 44.976 142.734 45.7303 142.734 46.655C142.734 47.1417 142.563 47.6283 142.223 48.115C141.979 48.4557 141.687 48.9423 141.347 49.575C141.006 50.159 140.714 50.6943 140.471 51.181C140.179 51.765 140.106 52.057 140.252 52.057C140.3 52.057 140.544 51.838 140.982 51.4C141.955 50.4753 143.269 49.5263 144.924 48.553C146.627 47.531 148.379 46.6793 150.18 45.998C151.98 45.268 153.538 44.903 154.852 44.903C156.798 44.903 158.38 45.4627 159.597 46.582C160.862 47.6527 161.787 49.0397 162.371 50.743C162.955 52.4463 163.247 54.1983 163.247 55.999C163.247 59.211 162.517 61.766 161.057 63.664C160.862 63.956 160.473 64.3697 159.889 64.905C159.305 65.4403 158.867 65.708 158.575 65.708C158.429 65.708 158.356 65.6107 158.356 65.416C158.356 65.3187 158.356 65.2213 158.356 65.124C158.404 65.0267 158.453 64.905 158.502 64.759C158.891 63.6883 159.183 62.5203 159.378 61.255C159.621 59.9897 159.743 58.7243 159.743 57.459C159.743 55.853 159.499 54.3443 159.013 52.933C158.575 51.5217 157.796 50.378 156.677 49.502C155.606 48.626 154.122 48.188 152.224 48.188C149.255 48.188 146.676 49.1127 144.486 50.962C142.344 52.8113 140.203 55.3907 138.062 58.7C136.407 61.2307 135.166 63.153 134.339 64.467C133.511 65.781 132.83 66.438 132.295 66.438ZM209.713 67.168C209.226 67.168 209.056 66.7057 209.202 65.781C209.445 64.3697 209.616 62.9583 209.713 61.547C209.859 60.087 209.932 58.8217 209.932 57.751C209.932 56.729 209.859 55.9017 209.713 55.269C209.616 54.5877 209.397 54.247 209.056 54.247C208.91 54.247 208.691 54.32 208.399 54.466C208.156 54.612 207.718 54.904 207.085 55.342C206.014 56.1207 204.627 56.9723 202.924 57.897C201.269 58.8217 199.469 59.7463 197.522 60.671C195.575 61.5957 193.677 62.4717 191.828 63.299C189.979 64.1263 188.324 64.8807 186.864 65.562C186.037 65.9027 185.088 66.073 184.017 66.073C182.8 66.073 181.681 65.8783 180.659 65.489C179.686 65.051 179.199 64.394 179.199 63.518C179.199 62.3013 179.637 60.671 180.513 58.627C181.389 56.583 182.727 54.3687 184.528 51.984C186.329 49.5507 188.567 47.2147 191.244 44.976C193.045 43.4673 194.943 42.275 196.938 41.399C198.933 40.523 201.099 40.085 203.435 40.085C204.652 40.085 205.941 40.231 207.304 40.523C208.667 40.815 209.81 41.3017 210.735 41.983C211.708 42.6643 212.195 43.6133 212.195 44.83C212.195 45.706 211.976 46.3387 211.538 46.728C211.149 47.0687 210.735 47.239 210.297 47.239C209.713 47.239 208.983 46.9957 208.107 46.509C207.28 46.0223 206.16 45.779 204.749 45.779C203.727 45.779 202.681 45.9493 201.61 46.29C200.539 46.582 199.347 47.093 198.033 47.823C195.794 49.0883 193.799 50.4753 192.047 51.984C190.295 53.444 188.908 54.8797 187.886 56.291C186.913 57.7023 186.426 58.919 186.426 59.941C186.426 60.671 186.669 61.255 187.156 61.693C187.691 62.131 188.348 62.35 189.127 62.35C190.344 62.35 191.755 61.985 193.361 61.255C194.967 60.4763 196.5 59.6977 197.96 58.919C200.977 57.313 203.265 55.9503 204.822 54.831C206.428 53.7117 207.645 52.8357 208.472 52.203C209.348 51.5217 210.175 51.0593 210.954 50.816C211.1 50.7673 211.368 50.743 211.757 50.743C212.536 50.743 213.387 50.9133 214.312 51.254C215.285 51.546 215.748 51.838 215.699 52.13C215.699 53.006 215.407 54.028 214.823 55.196C214.239 56.3153 213.752 57.6537 213.363 59.211C213.12 60.2817 212.949 61.255 212.852 62.131C212.803 62.9583 212.56 64.0777 212.122 65.489C212.073 65.6837 211.757 66 211.173 66.438C210.589 66.9247 210.102 67.168 209.713 67.168Z" fill="#F7DB4A"/>
<path d="M43.1713 95.792C41.9713 95.792 40.9393 95.768 40.0753 95.72C39.2113 95.672 38.6593 95.624 38.4193 95.576C37.1713 95.312 36.2833 95.06 35.7553 94.82C35.2513 94.556 34.9993 94.34 34.9993 94.172C34.9993 94.004 35.1553 93.872 35.4673 93.776C35.7793 93.656 36.1393 93.596 36.5473 93.596C36.7633 93.596 36.9793 93.62 37.1953 93.668C37.4113 93.692 37.6273 93.728 37.8433 93.776C38.0833 93.848 38.3833 93.896 38.7433 93.92C39.1273 93.944 39.5593 93.956 40.0393 93.956C40.9993 93.956 42.0913 93.908 43.3153 93.812C44.5393 93.692 45.7753 93.524 47.0233 93.308C48.2953 93.092 49.4713 92.852 50.5513 92.588C51.6313 92.3 52.4953 91.988 53.1433 91.652C53.8153 91.316 54.1513 90.956 54.1513 90.572C54.1513 90.404 54.0553 90.224 53.8633 90.032C53.4793 89.648 52.9993 89.324 52.4233 89.06C51.8713 88.796 51.1753 88.508 50.3353 88.196C49.5193 87.86 48.5113 87.44 47.3113 86.936C46.1353 86.408 44.7313 85.712 43.0993 84.848C42.0913 84.296 41.2153 83.732 40.4713 83.156C39.7273 82.58 39.3553 81.932 39.3553 81.212C39.3553 80.828 39.4753 80.432 39.7153 80.024C39.9793 79.592 40.3993 79.136 40.9753 78.656C42.3433 77.504 43.8553 76.592 45.5113 75.92C47.1673 75.248 48.8473 74.768 50.5513 74.48C52.2553 74.192 53.8513 74.048 55.3393 74.048C57.0433 74.048 58.5073 74.192 59.7313 74.48C60.9793 74.744 61.7713 75.08 62.1073 75.488C62.3473 75.752 62.4673 76.172 62.4673 76.748C62.4673 77.324 62.3593 77.948 62.1433 78.62C61.9273 79.268 61.6633 79.832 61.3513 80.312C61.0633 80.792 60.7873 81.044 60.5233 81.068C59.9233 81.092 59.5393 80.936 59.3713 80.6C59.2033 80.24 59.1193 79.796 59.1193 79.268C59.1193 78.98 59.1313 78.68 59.1553 78.368C59.1793 78.056 59.1913 77.756 59.1913 77.468C59.1913 76.988 59.1313 76.568 59.0113 76.208C58.9153 75.848 58.6753 75.584 58.2913 75.416C57.6193 75.128 56.7553 74.984 55.6992 74.984C54.5473 74.984 53.3113 75.152 51.9913 75.488C50.6953 75.824 49.5313 76.304 48.4993 76.928C48.0673 77.192 47.5753 77.576 47.0233 78.08C46.4953 78.56 46.0273 79.124 45.6193 79.772C45.2113 80.396 45.0073 81.068 45.0073 81.788C45.0073 82.412 45.2113 83.06 45.6193 83.732C46.0513 84.404 46.7833 85.064 47.8153 85.712C48.6793 86.24 49.6033 86.72 50.5873 87.152C51.5953 87.584 52.5553 87.992 53.4673 88.376C54.4033 88.736 55.2073 89.084 55.8793 89.42C56.5513 89.756 56.9953 90.104 57.2113 90.464C57.5233 90.944 57.6793 91.412 57.6793 91.868C57.6793 92.516 57.3673 93.068 56.7433 93.524C56.1193 93.98 55.2793 94.364 54.2233 94.676C53.1913 94.964 52.0273 95.18 50.7313 95.324C49.4593 95.492 48.1633 95.612 46.8433 95.684C45.5473 95.756 44.3233 95.792 43.1713 95.792ZM64.8433 95.216C64.2673 95.216 63.7753 94.988 63.3673 94.532C62.9833 94.076 62.7913 93.476 62.7913 92.732C62.7913 92.012 62.9113 91.208 63.1513 90.32C63.3913 89.408 63.6673 88.532 63.9793 87.692C64.2913 86.828 64.5553 86.096 64.7713 85.496C64.8913 85.16 65.2513 84.884 65.8513 84.668C66.4753 84.452 67.0513 84.344 67.5793 84.344C67.8913 84.344 68.1433 84.38 68.3353 84.452C68.5513 84.524 68.6593 84.656 68.6593 84.848C68.6593 84.896 68.6353 84.968 68.5873 85.064C68.5633 85.16 68.4913 85.316 68.3713 85.532C67.5793 86.852 67.0153 88.028 66.6793 89.06C66.3673 90.068 66.2113 90.908 66.2113 91.58C66.2113 92.18 66.3073 92.66 66.4993 93.02C66.7153 93.356 66.9433 93.524 67.1833 93.524C67.4473 93.524 67.8313 93.344 68.3353 92.984C68.8393 92.624 69.4153 92.156 70.0633 91.58C70.7113 91.004 71.3713 90.392 72.0433 89.744C72.7393 89.096 73.3993 88.472 74.0233 87.872C74.6713 87.272 75.2353 86.768 75.7153 86.36C76.1233 86.024 76.4953 85.856 76.8313 85.856C77.1673 85.856 77.4313 85.976 77.6233 86.216C77.8153 86.432 77.8753 86.612 77.8033 86.756C77.4193 87.476 77.0713 88.292 76.7593 89.204C76.4473 90.116 76.2913 90.956 76.2913 91.724C76.2913 92.3 76.4113 92.804 76.6513 93.236C76.8913 93.644 77.3353 93.944 77.9833 94.136C78.2233 94.184 78.3793 94.268 78.4513 94.388C78.5473 94.484 78.5953 94.568 78.5953 94.64C78.5953 94.808 78.4513 94.892 78.1633 94.892C77.9953 94.892 77.7673 94.856 77.4793 94.784C77.0233 94.64 76.6033 94.484 76.2193 94.316C75.8353 94.148 75.4993 93.908 75.2113 93.596C74.9713 93.332 74.7673 92.984 74.5993 92.552C74.4313 92.12 74.3473 91.628 74.3473 91.076C74.3473 90.644 74.4913 90.152 74.7793 89.6C75.0673 89.024 75.2833 88.592 75.4273 88.304C75.4993 88.16 75.5353 88.064 75.5353 88.016C75.5353 87.968 75.4393 88.028 75.2473 88.196C74.7673 88.652 74.2993 89.144 73.8433 89.672C73.3873 90.176 72.8113 90.752 72.1152 91.4C71.4433 92.024 70.5313 92.756 69.3793 93.596C68.7793 94.028 68.0473 94.412 67.1833 94.748C66.3193 95.06 65.5393 95.216 64.8433 95.216ZM81.4612 95.216C81.3652 95.216 81.1972 95.144 80.9572 95C80.7172 94.88 80.4892 94.712 80.2732 94.496C80.0812 94.256 79.9852 94.016 79.9852 93.776C79.9852 93.104 80.0932 92.276 80.3092 91.292C80.5492 90.284 80.8612 89.228 81.2452 88.124C81.6292 86.996 82.0372 85.952 82.4692 84.992C82.6612 84.584 82.9252 84.308 83.2612 84.164C83.5972 83.996 83.9572 83.912 84.3412 83.912C84.8932 83.912 85.4092 84.056 85.8892 84.344C86.3692 84.632 86.6092 85.004 86.6092 85.46C86.6092 85.7 86.5252 85.94 86.3572 86.18C86.2372 86.348 86.0932 86.588 85.9252 86.9C85.7572 87.188 85.6132 87.452 85.4932 87.692C85.3492 87.98 85.3132 88.124 85.3852 88.124C85.4092 88.124 85.5292 88.016 85.7452 87.8C86.2252 87.344 86.8732 86.876 87.6892 86.396C88.5292 85.892 89.3932 85.472 90.2812 85.136C91.1692 84.776 91.9372 84.596 92.5852 84.596C93.5452 84.596 94.3252 84.872 94.9252 85.424C95.5492 85.952 96.0052 86.636 96.2932 87.476C96.5812 88.316 96.7252 89.18 96.7252 90.068C96.7252 91.652 96.3652 92.912 95.6452 93.848C95.5492 93.992 95.3572 94.196 95.0692 94.46C94.7812 94.724 94.5652 94.856 94.4212 94.856C94.3492 94.856 94.3132 94.808 94.3132 94.712C94.3132 94.664 94.3132 94.616 94.3132 94.568C94.3372 94.52 94.3612 94.46 94.3852 94.388C94.5772 93.86 94.7212 93.284 94.8172 92.66C94.9372 92.036 94.9972 91.412 94.9972 90.788C94.9972 89.996 94.8772 89.252 94.6372 88.556C94.4212 87.86 94.0372 87.296 93.4852 86.864C92.9572 86.432 92.2252 86.216 91.2892 86.216C89.8252 86.216 88.5532 86.672 87.4732 87.584C86.4172 88.496 85.3612 89.768 84.3052 91.4C83.4892 92.648 82.8772 93.596 82.4692 94.244C82.0612 94.892 81.7252 95.216 81.4612 95.216ZM103.26 95.432C102.588 95.432 101.892 95.384 101.172 95.288C100.476 95.216 99.888 95.072 99.408 94.856C98.952 94.616 98.724 94.292 98.724 93.884C98.724 93.668 98.808 93.5 98.976 93.38C99.168 93.236 99.384 93.164 99.624 93.164C99.744 93.164 99.948 93.188 100.236 93.236C100.524 93.284 100.728 93.32 100.848 93.344C101.568 93.416 102.468 93.452 103.548 93.452C104.484 93.452 105.408 93.416 106.32 93.344C107.232 93.272 107.988 93.164 108.588 93.02C109.212 92.876 109.524 92.696 109.524 92.48C109.524 92.288 109.332 92.096 108.948 91.904C108.564 91.688 108.204 91.508 107.868 91.364C107.22 91.052 106.5 90.74 105.708 90.428C104.916 90.116 104.184 89.84 103.512 89.6C102.864 89.336 102.432 89.156 102.216 89.06C101.472 88.724 100.824 88.364 100.272 87.98C99.72 87.596 99.444 87.176 99.444 86.72C99.444 86.36 99.696 85.892 100.2 85.316C100.8 84.668 101.544 84.14 102.432 83.732C103.344 83.3 104.316 82.976 105.348 82.76C106.404 82.544 107.436 82.436 108.444 82.436C109.212 82.436 109.932 82.496 110.604 82.616C111.3 82.736 111.9 82.916 112.404 83.156C112.74 83.324 113.04 83.54 113.304 83.804C113.592 84.044 113.736 84.26 113.736 84.452C113.736 84.596 113.664 84.704 113.52 84.776C113.4 84.848 113.244 84.884 113.052 84.884C112.956 84.884 112.86 84.884 112.764 84.884C112.692 84.86 112.62 84.836 112.548 84.812C112.044 84.62 111.528 84.464 111 84.344C110.472 84.224 109.932 84.164 109.38 84.164C108.636 84.164 107.832 84.332 106.968 84.668C106.128 84.98 105.408 85.388 104.808 85.892C104.232 86.396 103.944 86.912 103.944 87.44C103.944 87.704 104.052 87.992 104.268 88.304C104.484 88.592 104.856 88.904 105.384 89.24C106.272 89.768 107.172 90.212 108.084 90.572C108.996 90.908 109.752 91.232 110.352 91.544C111.264 92.048 111.72 92.612 111.72 93.236C111.72 93.692 111.432 94.064 110.856 94.352C110.28 94.64 109.548 94.856 108.66 95C107.772 95.168 106.836 95.276 105.852 95.324C104.892 95.396 104.028 95.432 103.26 95.432ZM117.29 95.144C116.906 95.144 116.486 94.94 116.03 94.532C115.598 94.124 115.382 93.596 115.382 92.948C115.382 91.844 115.514 90.608 115.778 89.24C116.066 87.848 116.45 86.444 116.93 85.028C117.41 83.588 117.926 82.22 118.478 80.924C119.054 79.604 119.63 78.452 120.206 77.468C120.446 77.06 120.794 76.724 121.25 76.46C121.73 76.196 122.246 76.004 122.798 75.884C123.35 75.764 123.842 75.704 124.274 75.704C124.85 75.704 125.21 75.776 125.354 75.92C125.522 76.04 125.606 76.244 125.606 76.532C125.606 76.772 125.534 77.06 125.39 77.396C125.27 77.708 124.994 78.14 124.562 78.692C123.266 80.324 122.258 81.896 121.538 83.408C120.818 84.92 120.314 86.24 120.026 87.368C119.762 88.496 119.63 89.336 119.63 89.888C119.63 90.128 119.642 90.284 119.666 90.356C119.738 90.236 119.858 90.08 120.026 89.888C120.194 89.696 120.41 89.48 120.674 89.24C121.25 88.712 121.922 88.16 122.69 87.584C123.458 86.984 124.298 86.48 125.21 86.072C126.122 85.64 127.07 85.424 128.054 85.424C128.702 85.424 129.338 85.52 129.962 85.712C130.586 85.88 131.102 86.192 131.51 86.648C131.942 87.08 132.158 87.692 132.158 88.484C132.158 88.892 132.05 89.408 131.834 90.032C131.642 90.656 131.414 91.292 131.15 91.94C130.886 92.564 130.658 93.116 130.466 93.596C130.346 93.908 130.142 94.172 129.854 94.388C129.59 94.58 129.362 94.676 129.17 94.676C128.954 94.676 128.846 94.592 128.846 94.424C128.846 94.328 128.894 94.148 128.99 93.884C129.302 92.9 129.53 92.048 129.674 91.328C129.842 90.584 129.926 89.936 129.926 89.384C129.926 88.52 129.758 87.776 129.422 87.152C129.11 86.528 128.582 86.216 127.838 86.216C127.094 86.216 126.23 86.492 125.246 87.044C124.286 87.596 123.314 88.316 122.33 89.204C121.37 90.068 120.494 90.992 119.702 91.976C118.91 92.96 118.334 93.872 117.974 94.712C117.83 95 117.602 95.144 117.29 95.144ZM137.979 81.788C137.74 81.788 137.56 81.764 137.439 81.716C137.32 81.644 137.2 81.56 137.08 81.464C136.936 81.32 136.768 81.152 136.576 80.96C136.384 80.744 136.288 80.564 136.288 80.42C136.288 80.3 136.36 80.228 136.504 80.204C137.752 79.82 138.688 79.628 139.312 79.628C139.696 79.628 139.984 79.688 140.176 79.808C140.392 79.904 140.572 80.048 140.716 80.24C140.764 80.264 140.848 80.384 140.968 80.6C141.088 80.792 141.148 80.912 141.148 80.96C141.148 81.128 140.944 81.236 140.536 81.284C140.128 81.332 139.792 81.38 139.528 81.428C139.264 81.524 139 81.608 138.736 81.68C138.496 81.752 138.244 81.788 137.979 81.788ZM137.332 94.64C137.188 94.64 137.02 94.508 136.828 94.244C136.636 93.98 136.444 93.692 136.252 93.38C135.772 92.54 135.376 91.676 135.063 90.788C134.752 89.9 134.596 89.048 134.596 88.232C134.596 87.488 134.74 86.792 135.028 86.144C135.316 85.496 135.772 84.944 136.396 84.488C136.756 84.2 137.272 84.056 137.944 84.056C138.352 84.056 138.712 84.14 139.024 84.308C139.336 84.452 139.492 84.728 139.492 85.136C139.492 85.52 139.324 86.024 138.988 86.648C138.676 87.272 138.388 87.944 138.124 88.664C137.98 89.12 137.86 89.648 137.764 90.248C137.692 90.848 137.668 91.532 137.692 92.3C137.692 92.468 137.692 92.624 137.692 92.768C137.716 92.888 137.728 93.008 137.728 93.128C137.728 93.68 137.692 94.076 137.62 94.316C137.548 94.532 137.452 94.64 137.332 94.64ZM144.532 95.216C144.436 95.216 144.268 95.144 144.028 95C143.788 94.88 143.56 94.712 143.344 94.496C143.152 94.256 143.056 94.016 143.056 93.776C143.056 93.104 143.164 92.276 143.38 91.292C143.62 90.284 143.932 89.228 144.316 88.124C144.7 86.996 145.108 85.952 145.54 84.992C145.732 84.584 145.996 84.308 146.332 84.164C146.668 83.996 147.028 83.912 147.412 83.912C147.964 83.912 148.48 84.056 148.96 84.344C149.44 84.632 149.68 85.004 149.68 85.46C149.68 85.7 149.596 85.94 149.428 86.18C149.308 86.348 149.164 86.588 148.996 86.9C148.828 87.188 148.684 87.452 148.564 87.692C148.42 87.98 148.384 88.124 148.456 88.124C148.48 88.124 148.6 88.016 148.816 87.8C149.296 87.344 149.944 86.876 150.76 86.396C151.6 85.892 152.464 85.472 153.352 85.136C154.24 84.776 155.008 84.596 155.656 84.596C156.616 84.596 157.396 84.872 157.996 85.424C158.62 85.952 159.076 86.636 159.364 87.476C159.652 88.316 159.796 89.18 159.796 90.068C159.796 91.652 159.436 92.912 158.716 93.848C158.62 93.992 158.428 94.196 158.14 94.46C157.852 94.724 157.636 94.856 157.492 94.856C157.42 94.856 157.384 94.808 157.384 94.712C157.384 94.664 157.384 94.616 157.384 94.568C157.408 94.52 157.432 94.46 157.456 94.388C157.648 93.86 157.792 93.284 157.888 92.66C158.008 92.036 158.068 91.412 158.068 90.788C158.068 89.996 157.948 89.252 157.708 88.556C157.492 87.86 157.108 87.296 156.556 86.864C156.028 86.432 155.296 86.216 154.36 86.216C152.896 86.216 151.624 86.672 150.544 87.584C149.488 88.496 148.432 89.768 147.376 91.4C146.56 92.648 145.948 93.596 145.54 94.244C145.132 94.892 144.796 95.216 144.532 95.216ZM168.094 95.828C167.134 95.828 166.234 95.648 165.394 95.288C164.554 94.952 163.87 94.412 163.342 93.668C162.91 93.044 162.61 92.444 162.442 91.868C162.274 91.268 162.19 90.704 162.19 90.176C162.19 89.672 162.25 89.216 162.37 88.808C162.49 88.376 162.634 88.028 162.802 87.764C163.306 86.9 163.834 86.18 164.386 85.604C164.962 85.028 165.586 84.512 166.258 84.056C167.146 83.48 168.238 83.192 169.534 83.192C170.014 83.192 170.518 83.384 171.046 83.768C171.574 84.152 172.342 84.548 173.35 84.956C174.022 85.22 174.646 85.532 175.222 85.892C175.822 86.228 176.302 86.576 176.662 86.936C177.046 87.272 177.238 87.596 177.238 87.908C177.238 88.244 176.962 88.52 176.41 88.736C175.618 89 174.682 89.24 173.602 89.456C172.522 89.648 171.442 89.804 170.362 89.924C169.306 90.044 168.37 90.104 167.554 90.104C166.93 90.104 166.45 90.068 166.114 89.996C165.97 90.524 165.898 91.076 165.898 91.652C165.898 92.132 165.97 92.612 166.114 93.092C166.258 93.572 166.498 94.016 166.834 94.424C167.074 94.688 167.338 94.88 167.626 95C167.938 95.096 168.25 95.144 168.562 95.144C169.09 95.144 169.606 95.06 170.11 94.892C170.638 94.7 171.094 94.508 171.478 94.316C171.862 94.1 172.102 93.956 172.198 93.884C172.678 93.596 173.038 93.38 173.278 93.236C173.542 93.092 173.794 93.02 174.034 93.02C174.466 93.02 174.682 93.116 174.682 93.308C174.682 93.428 174.562 93.608 174.322 93.848C174.082 94.064 173.662 94.316 173.062 94.604C172.294 94.988 171.478 95.288 170.614 95.504C169.774 95.72 168.934 95.828 168.094 95.828ZM168.382 88.916C169.15 88.916 170.05 88.88 171.082 88.808C172.114 88.712 173.23 88.556 174.43 88.34C175.102 88.196 175.438 87.992 175.438 87.728C175.438 87.512 175.282 87.284 174.97 87.044C174.682 86.78 174.31 86.54 173.854 86.324C173.422 86.108 172.99 85.928 172.558 85.784C172.15 85.616 171.838 85.532 171.622 85.532C170.59 85.532 169.702 85.748 168.958 86.18C168.238 86.612 167.614 87.176 167.086 87.872C166.918 88.088 166.738 88.4 166.546 88.808C166.954 88.88 167.566 88.916 168.382 88.916ZM190.393 96.656C190.225 96.656 190.057 96.452 189.889 96.044C189.721 95.636 189.613 95.024 189.565 94.208C189.541 93.992 189.529 93.776 189.529 93.56C189.529 93.344 189.529 93.116 189.529 92.876C189.529 92.108 189.553 91.364 189.601 90.644C189.649 89.924 189.709 89.312 189.781 88.808C189.877 88.28 189.961 87.968 190.033 87.872C189.505 87.752 189.073 87.608 188.737 87.44C188.401 87.272 188.233 87.104 188.233 86.936C188.233 86.72 188.521 86.54 189.097 86.396C189.241 86.396 189.409 86.384 189.601 86.36C189.817 86.336 190.057 86.324 190.321 86.324C190.585 85.388 190.921 84.332 191.329 83.156C191.761 81.98 192.205 80.804 192.661 79.628C193.117 78.452 193.513 77.372 193.849 76.388C194.185 75.404 194.389 74.648 194.461 74.12C194.485 73.88 194.581 73.712 194.749 73.616C194.941 73.496 195.157 73.436 195.397 73.436C195.781 73.436 196.189 73.544 196.621 73.76C197.077 73.976 197.461 74.288 197.773 74.696C198.109 75.08 198.277 75.536 198.277 76.064C198.277 76.232 198.253 76.424 198.205 76.64C198.181 76.832 198.109 77.024 197.989 77.216C197.629 77.936 197.209 78.644 196.729 79.34C196.273 80.036 195.757 80.9 195.181 81.932C194.605 82.964 193.945 84.356 193.201 86.108H209.185C209.425 84.476 209.629 82.832 209.797 81.176C209.965 79.52 210.313 77.648 210.841 75.56C210.841 75.512 211.033 75.452 211.417 75.38C211.825 75.308 212.233 75.272 212.641 75.272C213.001 75.272 213.301 75.332 213.541 75.452C213.805 75.548 213.889 75.752 213.793 76.064C213.577 76.736 213.325 77.576 213.037 78.584C212.749 79.568 212.449 80.588 212.137 81.644C211.849 82.676 211.597 83.6 211.381 84.416C211.165 85.232 211.021 85.808 210.949 86.144C211.285 86.144 211.729 86.144 212.281 86.144C212.833 86.144 213.205 86.24 213.397 86.432C213.565 86.6 213.529 86.732 213.289 86.828C213.049 86.924 212.725 87.02 212.317 87.116C211.933 87.188 211.549 87.272 211.165 87.368C210.805 87.464 210.589 87.584 210.517 87.728C210.253 89.024 210.037 90.224 209.869 91.328C209.701 92.432 209.545 93.344 209.401 94.064C209.281 94.76 209.113 95.156 208.897 95.252C208.849 95.276 208.789 95.288 208.717 95.288C208.501 95.288 208.393 95.036 208.393 94.532C208.393 94.196 208.429 93.764 208.501 93.236C208.573 92.684 208.621 92.132 208.645 91.58C208.693 90.956 208.729 90.452 208.753 90.068C208.801 89.66 208.849 89.24 208.897 88.808C208.945 88.376 208.981 87.788 209.005 87.044C206.629 87.212 204.349 87.32 202.165 87.368C199.981 87.392 198.061 87.44 196.405 87.512C194.749 87.56 193.501 87.704 192.661 87.944C192.133 89.576 191.677 91.076 191.293 92.444C190.933 93.788 190.729 94.952 190.681 95.936C190.681 96.416 190.585 96.656 190.393 96.656ZM219.282 95.828C218.322 95.828 217.422 95.648 216.582 95.288C215.742 94.952 215.058 94.412 214.53 93.668C214.098 93.044 213.798 92.444 213.63 91.868C213.462 91.268 213.378 90.704 213.378 90.176C213.378 89.672 213.438 89.216 213.558 88.808C213.678 88.376 213.822 88.028 213.99 87.764C214.494 86.9 215.022 86.18 215.574 85.604C216.15 85.028 216.774 84.512 217.446 84.056C218.334 83.48 219.426 83.192 220.722 83.192C221.202 83.192 221.706 83.384 222.234 83.768C222.762 84.152 223.53 84.548 224.538 84.956C225.21 85.22 225.834 85.532 226.41 85.892C227.01 86.228 227.49 86.576 227.85 86.936C228.234 87.272 228.426 87.596 228.426 87.908C228.426 88.244 228.15 88.52 227.598 88.736C226.806 89 225.87 89.24 224.79 89.456C223.71 89.648 222.63 89.804 221.55 89.924C220.494 90.044 219.558 90.104 218.742 90.104C218.118 90.104 217.638 90.068 217.302 89.996C217.158 90.524 217.086 91.076 217.086 91.652C217.086 92.132 217.158 92.612 217.302 93.092C217.446 93.572 217.686 94.016 218.022 94.424C218.262 94.688 218.526 94.88 218.814 95C219.126 95.096 219.438 95.144 219.75 95.144C220.278 95.144 220.794 95.06 221.298 94.892C221.826 94.7 222.282 94.508 222.666 94.316C223.05 94.1 223.29 93.956 223.386 93.884C223.866 93.596 224.226 93.38 224.466 93.236C224.73 93.092 224.982 93.02 225.222 93.02C225.654 93.02 225.87 93.116 225.87 93.308C225.87 93.428 225.75 93.608 225.51 93.848C225.27 94.064 224.85 94.316 224.25 94.604C223.482 94.988 222.666 95.288 221.802 95.504C220.962 95.72 220.122 95.828 219.282 95.828ZM219.57 88.916C220.338 88.916 221.238 88.88 222.27 88.808C223.302 88.712 224.418 88.556 225.618 88.34C226.29 88.196 226.626 87.992 226.626 87.728C226.626 87.512 226.47 87.284 226.158 87.044C225.87 86.78 225.498 86.54 225.042 86.324C224.61 86.108 224.178 85.928 223.746 85.784C223.338 85.616 223.026 85.532 222.81 85.532C221.778 85.532 220.89 85.748 220.146 86.18C219.426 86.612 218.802 87.176 218.274 87.872C218.106 88.088 217.926 88.4 217.734 88.808C218.142 88.88 218.754 88.916 219.57 88.916ZM243.369 95.576C243.129 95.576 243.045 95.348 243.117 94.892C243.237 94.196 243.321 93.5 243.369 92.804C243.441 92.084 243.477 91.46 243.477 90.932C243.477 90.428 243.441 90.02 243.369 89.708C243.321 89.372 243.213 89.204 243.045 89.204C242.973 89.204 242.865 89.24 242.721 89.312C242.601 89.384 242.385 89.528 242.073 89.744C241.545 90.128 240.861 90.548 240.021 91.004C239.205 91.46 238.317 91.916 237.357 92.372C236.397 92.828 235.461 93.26 234.549 93.668C233.637 94.076 232.821 94.448 232.101 94.784C231.693 94.952 231.225 95.036 230.697 95.036C230.097 95.036 229.545 94.94 229.041 94.748C228.561 94.532 228.321 94.208 228.321 93.776C228.321 93.176 228.537 92.372 228.969 91.364C229.401 90.356 230.061 89.264 230.949 88.088C231.837 86.888 232.941 85.736 234.261 84.632C235.149 83.888 236.085 83.3 237.069 82.868C238.053 82.436 239.121 82.22 240.273 82.22C240.873 82.22 241.509 82.292 242.181 82.436C242.853 82.58 243.417 82.82 243.873 83.156C244.353 83.492 244.593 83.96 244.593 84.56C244.593 84.992 244.485 85.304 244.269 85.496C244.077 85.664 243.873 85.748 243.657 85.748C243.369 85.748 243.009 85.628 242.577 85.388C242.169 85.148 241.617 85.028 240.921 85.028C240.417 85.028 239.901 85.112 239.373 85.28C238.845 85.424 238.257 85.676 237.609 86.036C236.505 86.66 235.521 87.344 234.657 88.088C233.793 88.808 233.109 89.516 232.605 90.212C232.125 90.908 231.885 91.508 231.885 92.012C231.885 92.372 232.005 92.66 232.245 92.876C232.509 93.092 232.833 93.2 233.217 93.2C233.817 93.2 234.513 93.02 235.305 92.66C236.097 92.276 236.853 91.892 237.573 91.508C239.061 90.716 240.189 90.044 240.957 89.492C241.749 88.94 242.349 88.508 242.757 88.196C243.189 87.86 243.597 87.632 243.981 87.512C244.053 87.488 244.185 87.476 244.377 87.476C244.761 87.476 245.181 87.56 245.637 87.728C246.117 87.872 246.345 88.016 246.321 88.16C246.321 88.592 246.177 89.096 245.889 89.672C245.601 90.224 245.361 90.884 245.169 91.652C245.049 92.18 244.965 92.66 244.917 93.092C244.893 93.5 244.773 94.052 244.557 94.748C244.533 94.844 244.377 95 244.089 95.216C243.801 95.456 243.561 95.576 243.369 95.576ZM249.007 95.468C248.719 95.468 248.467 95.276 248.251 94.892C248.059 94.484 247.903 94.028 247.783 93.524C247.663 92.996 247.603 92.552 247.603 92.192C247.603 91.4 247.711 90.476 247.927 89.42C248.167 88.364 248.479 87.26 248.863 86.108C249.247 84.932 249.667 83.78 250.123 82.652C250.579 81.524 251.047 80.48 251.527 79.52C252.007 78.536 252.439 77.732 252.823 77.108C253.159 76.556 253.639 76.184 254.263 75.992C254.911 75.776 255.523 75.668 256.099 75.668C256.675 75.668 257.131 75.74 257.467 75.884C257.803 76.028 257.899 76.196 257.755 76.388C257.011 77.348 256.231 78.476 255.415 79.772C254.599 81.068 253.807 82.436 253.039 83.876C252.295 85.316 251.623 86.744 251.023 88.16C250.447 89.576 250.003 90.896 249.691 92.12C249.379 93.344 249.271 94.364 249.367 95.18C249.367 95.372 249.247 95.468 249.007 95.468ZM260.477 95.936C260.285 95.936 260.045 95.852 259.757 95.684C259.469 95.54 259.133 95.204 258.749 94.676C258.437 94.244 258.197 93.644 258.029 92.876C257.885 92.108 257.813 91.34 257.813 90.572C257.813 89.564 257.873 88.724 257.993 88.052C258.113 87.38 258.197 86.948 258.245 86.756C257.885 86.42 257.585 86.18 257.345 86.036C257.105 85.892 256.985 85.724 256.985 85.532C256.985 85.196 257.213 84.932 257.669 84.74C258.149 84.524 258.677 84.392 259.253 84.344C259.469 83.84 259.661 83.3 259.829 82.724C259.997 82.124 260.165 81.56 260.333 81.032C260.501 80.48 260.681 80.048 260.873 79.736C261.209 79.184 261.725 78.812 262.421 78.62C263.141 78.428 263.825 78.332 264.473 78.332C265.121 78.332 265.637 78.404 266.021 78.548C266.429 78.668 266.525 78.812 266.309 78.98C265.925 79.244 265.505 79.7 265.049 80.348C264.593 80.972 264.149 81.656 263.717 82.4C263.285 83.144 262.889 83.828 262.529 84.452H267.281C268.145 84.452 268.577 84.524 268.577 84.668C268.577 84.908 268.049 85.052 266.993 85.1C265.625 85.124 264.617 85.16 263.969 85.208C263.345 85.256 262.901 85.304 262.637 85.352C262.301 85.424 262.049 85.532 261.881 85.676C261.713 85.82 261.569 86.06 261.449 86.396C261.041 87.428 260.705 88.508 260.441 89.636C260.201 90.74 260.081 91.748 260.081 92.66C260.081 93.356 260.153 93.956 260.297 94.46C260.465 94.94 260.705 95.264 261.017 95.432C261.089 95.456 261.125 95.504 261.125 95.576C261.125 95.648 261.065 95.72 260.945 95.792C260.825 95.888 260.669 95.936 260.477 95.936ZM268.813 95.144C268.429 95.144 268.009 94.94 267.553 94.532C267.121 94.124 266.905 93.596 266.905 92.948C266.905 91.844 267.037 90.608 267.301 89.24C267.589 87.848 267.973 86.444 268.453 85.028C268.933 83.588 269.449 82.22 270.001 80.924C270.577 79.604 271.153 78.452 271.729 77.468C271.969 77.06 272.317 76.724 272.773 76.46C273.253 76.196 273.769 76.004 274.321 75.884C274.873 75.764 275.365 75.704 275.797 75.704C276.373 75.704 276.733 75.776 276.877 75.92C277.045 76.04 277.129 76.244 277.129 76.532C277.129 76.772 277.057 77.06 276.913 77.396C276.793 77.708 276.517 78.14 276.085 78.692C274.789 80.324 273.781 81.896 273.061 83.408C272.341 84.92 271.837 86.24 271.549 87.368C271.285 88.496 271.153 89.336 271.153 89.888C271.153 90.128 271.165 90.284 271.189 90.356C271.261 90.236 271.381 90.08 271.549 89.888C271.717 89.696 271.933 89.48 272.197 89.24C272.773 88.712 273.445 88.16 274.213 87.584C274.981 86.984 275.821 86.48 276.733 86.072C277.645 85.64 278.593 85.424 279.577 85.424C280.225 85.424 280.861 85.52 281.485 85.712C282.109 85.88 282.625 86.192 283.033 86.648C283.465 87.08 283.681 87.692 283.681 88.484C283.681 88.892 283.573 89.408 283.357 90.032C283.165 90.656 282.937 91.292 282.673 91.94C282.409 92.564 282.181 93.116 281.989 93.596C281.869 93.908 281.665 94.172 281.377 94.388C281.113 94.58 280.885 94.676 280.693 94.676C280.477 94.676 280.369 94.592 280.369 94.424C280.369 94.328 280.417 94.148 280.513 93.884C280.825 92.9 281.053 92.048 281.197 91.328C281.365 90.584 281.449 89.936 281.449 89.384C281.449 88.52 281.281 87.776 280.945 87.152C280.633 86.528 280.105 86.216 279.361 86.216C278.617 86.216 277.753 86.492 276.769 87.044C275.809 87.596 274.837 88.316 273.853 89.204C272.893 90.068 272.017 90.992 271.225 91.976C270.433 92.96 269.857 93.872 269.497 94.712C269.353 95 269.125 95.144 268.813 95.144ZM304.382 95.792C303.182 95.792 302.15 95.768 301.286 95.72C300.422 95.672 299.87 95.624 299.63 95.576C298.382 95.312 297.494 95.06 296.966 94.82C296.462 94.556 296.21 94.34 296.21 94.172C296.21 94.004 296.366 93.872 296.678 93.776C296.99 93.656 297.35 93.596 297.758 93.596C297.974 93.596 298.19 93.62 298.406 93.668C298.622 93.692 298.838 93.728 299.054 93.776C299.294 93.848 299.594 93.896 299.954 93.92C300.338 93.944 300.77 93.956 301.25 93.956C302.21 93.956 303.302 93.908 304.526 93.812C305.75 93.692 306.986 93.524 308.234 93.308C309.506 93.092 310.682 92.852 311.762 92.588C312.842 92.3 313.706 91.988 314.354 91.652C315.026 91.316 315.362 90.956 315.362 90.572C315.362 90.404 315.266 90.224 315.074 90.032C314.69 89.648 314.21 89.324 313.634 89.06C313.082 88.796 312.386 88.508 311.546 88.196C310.73 87.86 309.722 87.44 308.522 86.936C307.346 86.408 305.942 85.712 304.31 84.848C303.302 84.296 302.426 83.732 301.682 83.156C300.938 82.58 300.566 81.932 300.566 81.212C300.566 80.828 300.686 80.432 300.926 80.024C301.19 79.592 301.61 79.136 302.186 78.656C303.554 77.504 305.066 76.592 306.722 75.92C308.378 75.248 310.058 74.768 311.762 74.48C313.466 74.192 315.062 74.048 316.55 74.048C318.254 74.048 319.718 74.192 320.942 74.48C322.19 74.744 322.982 75.08 323.318 75.488C323.558 75.752 323.678 76.172 323.678 76.748C323.678 77.324 323.57 77.948 323.354 78.62C323.138 79.268 322.874 79.832 322.562 80.312C322.274 80.792 321.998 81.044 321.734 81.068C321.134 81.092 320.75 80.936 320.582 80.6C320.414 80.24 320.33 79.796 320.33 79.268C320.33 78.98 320.342 78.68 320.366 78.368C320.39 78.056 320.402 77.756 320.402 77.468C320.402 76.988 320.342 76.568 320.222 76.208C320.126 75.848 319.886 75.584 319.502 75.416C318.83 75.128 317.966 74.984 316.91 74.984C315.758 74.984 314.522 75.152 313.202 75.488C311.906 75.824 310.742 76.304 309.71 76.928C309.278 77.192 308.786 77.576 308.234 78.08C307.706 78.56 307.238 79.124 306.83 79.772C306.422 80.396 306.218 81.068 306.218 81.788C306.218 82.412 306.422 83.06 306.83 83.732C307.262 84.404 307.994 85.064 309.026 85.712C309.89 86.24 310.814 86.72 311.798 87.152C312.806 87.584 313.766 87.992 314.678 88.376C315.614 88.736 316.418 89.084 317.09 89.42C317.762 89.756 318.206 90.104 318.422 90.464C318.734 90.944 318.89 91.412 318.89 91.868C318.89 92.516 318.578 93.068 317.954 93.524C317.33 93.98 316.49 94.364 315.434 94.676C314.402 94.964 313.238 95.18 311.942 95.324C310.67 95.492 309.374 95.612 308.054 95.684C306.758 95.756 305.534 95.792 304.382 95.792ZM324.038 102.56C323.75 102.56 323.426 102.176 323.066 101.408C322.706 100.664 322.526 99.704 322.526 98.528C322.526 98.192 322.55 97.844 322.598 97.484C322.622 97.124 322.682 96.752 322.778 96.368C323.066 95.024 323.402 93.452 323.786 91.652C324.17 89.828 324.782 87.836 325.622 85.676C325.982 84.788 326.522 84.056 327.242 83.48C327.962 82.88 328.706 82.436 329.474 82.148C330.242 81.86 330.854 81.716 331.31 81.716C331.694 81.716 331.886 81.812 331.886 82.004C331.886 82.076 331.73 82.28 331.418 82.616C331.13 82.952 330.782 83.372 330.374 83.876C329.966 84.38 329.594 84.908 329.258 85.46C328.946 86.012 328.766 86.54 328.718 87.044C329.342 86.684 330.11 86.324 331.022 85.964C331.958 85.58 332.954 85.268 334.01 85.028C335.066 84.764 336.086 84.632 337.07 84.632C338.126 84.632 339.098 84.764 339.986 85.028C340.874 85.268 341.582 85.628 342.11 86.108C342.662 86.564 342.938 87.128 342.938 87.8C342.938 88.472 342.614 89.228 341.966 90.068C341.342 90.908 340.262 91.688 338.726 92.408C337.214 93.104 335.138 93.62 332.498 93.956C332.09 94.004 331.766 93.836 331.526 93.452C331.286 93.068 331.166 92.684 331.166 92.3C331.166 92.06 331.214 91.856 331.31 91.688C331.43 91.52 331.586 91.424 331.778 91.4C332.426 91.352 333.218 91.196 334.154 90.932C335.114 90.668 336.05 90.332 336.962 89.924C337.898 89.516 338.666 89.072 339.266 88.592C339.89 88.112 340.202 87.62 340.202 87.116C340.202 86.66 339.962 86.252 339.482 85.892C339.026 85.508 338.294 85.316 337.286 85.316C336.854 85.316 336.374 85.364 335.846 85.46C335.318 85.532 334.73 85.664 334.082 85.856C333.218 86.12 332.342 86.456 331.454 86.864C330.566 87.272 329.774 87.776 329.078 88.376C328.382 88.952 327.878 89.648 327.566 90.464C326.966 92.048 326.354 93.812 325.73 95.756C325.13 97.7 324.746 99.632 324.578 101.552C324.506 102.224 324.326 102.56 324.038 102.56ZM359.42 95.576C359.18 95.576 359.096 95.348 359.168 94.892C359.288 94.196 359.372 93.5 359.42 92.804C359.492 92.084 359.528 91.46 359.528 90.932C359.528 90.428 359.492 90.02 359.42 89.708C359.372 89.372 359.264 89.204 359.096 89.204C359.024 89.204 358.916 89.24 358.772 89.312C358.652 89.384 358.436 89.528 358.124 89.744C357.596 90.128 356.912 90.548 356.072 91.004C355.256 91.46 354.368 91.916 353.408 92.372C352.448 92.828 351.512 93.26 350.6 93.668C349.688 94.076 348.872 94.448 348.152 94.784C347.744 94.952 347.276 95.036 346.748 95.036C346.148 95.036 345.596 94.94 345.092 94.748C344.612 94.532 344.372 94.208 344.372 93.776C344.372 93.176 344.588 92.372 345.02 91.364C345.452 90.356 346.112 89.264 347 88.088C347.888 86.888 348.992 85.736 350.312 84.632C351.2 83.888 352.136 83.3 353.12 82.868C354.104 82.436 355.172 82.22 356.324 82.22C356.924 82.22 357.56 82.292 358.232 82.436C358.904 82.58 359.468 82.82 359.924 83.156C360.404 83.492 360.644 83.96 360.644 84.56C360.644 84.992 360.536 85.304 360.32 85.496C360.128 85.664 359.924 85.748 359.708 85.748C359.42 85.748 359.06 85.628 358.628 85.388C358.22 85.148 357.668 85.028 356.972 85.028C356.468 85.028 355.952 85.112 355.424 85.28C354.896 85.424 354.308 85.676 353.66 86.036C352.556 86.66 351.572 87.344 350.708 88.088C349.844 88.808 349.16 89.516 348.656 90.212C348.176 90.908 347.936 91.508 347.936 92.012C347.936 92.372 348.056 92.66 348.296 92.876C348.56 93.092 348.884 93.2 349.268 93.2C349.868 93.2 350.564 93.02 351.356 92.66C352.148 92.276 352.904 91.892 353.624 91.508C355.112 90.716 356.24 90.044 357.008 89.492C357.8 88.94 358.4 88.508 358.808 88.196C359.24 87.86 359.648 87.632 360.032 87.512C360.104 87.488 360.236 87.476 360.428 87.476C360.812 87.476 361.232 87.56 361.688 87.728C362.168 87.872 362.396 88.016 362.372 88.16C362.372 88.592 362.228 89.096 361.94 89.672C361.652 90.224 361.412 90.884 361.22 91.652C361.1 92.18 361.016 92.66 360.968 93.092C360.944 93.5 360.824 94.052 360.608 94.748C360.584 94.844 360.428 95 360.14 95.216C359.852 95.456 359.612 95.576 359.42 95.576Z" fill="#B64242"/>
</svg>
